<svg xmlns="http://www.w3.org/2000/svg" viewBox="0 0 153.06 46.33"><defs><style>.cls-1{fill:#172052;}.cls-2{fill:#6286a3;}.cls-3{fill:#eecd26;}.cls-4{fill:none;}</style></defs><title>logotipo_2</title><g id="Layer_2" data-name="Layer 2"><g id="Capa_1" data-name="Capa 1"><path class="cls-1" d="M46.22,8.61h5.62q5.43,0,8.07,1.35a10.46,10.46,0,0,1,4.35,4.37A14.16,14.16,0,0,1,66,21.41a14.18,14.18,0,0,1-1,5.29,11,11,0,0,1-2.64,4,9.31,9.31,0,0,1-3.64,2.21,26.39,26.39,0,0,1-6.8.6H46.22Zm4.71,4.57V28.89h2.2a11.18,11.18,0,0,0,4.72-.74,5.72,5.72,0,0,0,2.39-2.51,9.22,9.22,0,0,0,.93-4.34A8.28,8.28,0,0,0,59,15.15c-1.34-1.31-3.47-2-6.42-2Z"/><path class="cls-1" d="M81.84,15.09h4.62V33.51H81.84V31.57a9,9,0,0,1-2.72,1.85,7.53,7.53,0,0,1-3,.57A8.18,8.18,0,0,1,70,31.22a9.67,9.67,0,0,1-2.6-6.88,9.87,9.87,0,0,1,2.52-7A8,8,0,0,1,76,14.62a7.75,7.75,0,0,1,3.11.63,8.27,8.27,0,0,1,2.69,1.88ZM77,18.89a4.66,4.66,0,0,0-3.56,1.51A5.45,5.45,0,0,0,72,24.29a5.5,5.5,0,0,0,1.45,3.93A4.69,4.69,0,0,0,77,29.76a4.77,4.77,0,0,0,3.61-1.52,5.56,5.56,0,0,0,1.43-4,5.39,5.39,0,0,0-1.43-3.89A4.81,4.81,0,0,0,77,18.89Z"/><path class="cls-1" d="M90,8.31h4.62v6.78h2.74v4H94.58V33.51H90V19.07H87.59v-4H90Z"/><path class="cls-1" d="M111.66,15.09h4.62V33.51h-4.62V31.57a9.13,9.13,0,0,1-2.72,1.85,7.57,7.57,0,0,1-3,.57,8.18,8.18,0,0,1-6.17-2.77,9.63,9.63,0,0,1-2.61-6.88,9.87,9.87,0,0,1,2.52-7,8,8,0,0,1,6.13-2.73,7.75,7.75,0,0,1,3.11.63,8.37,8.37,0,0,1,2.69,1.88Zm-4.86,3.8a4.66,4.66,0,0,0-3.56,1.51,5.45,5.45,0,0,0-1.42,3.89,5.54,5.54,0,0,0,1.44,3.93,4.7,4.7,0,0,0,3.55,1.54,4.78,4.78,0,0,0,3.62-1.52,5.56,5.56,0,0,0,1.43-4,5.39,5.39,0,0,0-1.43-3.89A4.81,4.81,0,0,0,106.8,18.89Z"/><path class="cls-1" d="M121,7.51a2.83,2.83,0,0,1,2.09.88,2.93,2.93,0,0,1,.87,2.13,2.87,2.87,0,0,1-.87,2.11,2.78,2.78,0,0,1-2,.87,2.81,2.81,0,0,1-2.11-.89,3,3,0,0,1-.87-2.15,2.94,2.94,0,0,1,2.94-3Zm-2.31,7.58h4.62V33.51h-4.62Z"/><path class="cls-1" d="M125.8,15.09h4.62V17a11.06,11.06,0,0,1,2.85-1.84,6.79,6.79,0,0,1,2.61-.52,6.33,6.33,0,0,1,4.65,1.91,6.59,6.59,0,0,1,1.61,4.81V33.51h-4.58V25.45a20.31,20.31,0,0,0-.29-4.38,3,3,0,0,0-1-1.65,2.89,2.89,0,0,0-1.82-.57,3.42,3.42,0,0,0-2.4.94,5,5,0,0,0-1.4,2.6,21.47,21.47,0,0,0-.2,3.73v7.39H125.8Z"/><path class="cls-1" d="M146.67,7.51a2.83,2.83,0,0,1,2.09.88,2.93,2.93,0,0,1,.87,2.13,2.9,2.9,0,0,1-.86,2.11,2.9,2.9,0,0,1-4.16,0,3,3,0,0,1-.87-2.15,2.94,2.94,0,0,1,2.93-3Zm-2.31,7.58H149V33.51h-4.62Z"/><path class="cls-2" d="M45.91,40.19l.77-.07a1,1,0,0,0,.28.56.85.85,0,0,0,.57.18.87.87,0,0,0,.58-.16.46.46,0,0,0,.19-.37.36.36,0,0,0-.08-.24.76.76,0,0,0-.29-.17l-.63-.17a2.06,2.06,0,0,1-.89-.39A1.05,1.05,0,0,1,46.22,38a1.12,1.12,0,0,1,.49-.39,2,2,0,0,1,.77-.14,1.69,1.69,0,0,1,1.11.32,1.2,1.2,0,0,1,.39.86l-.79,0a.74.74,0,0,0-.22-.44.85.85,0,0,0-.5-.13.94.94,0,0,0-.54.14.29.29,0,0,0-.12.25.28.28,0,0,0,.12.23,1.94,1.94,0,0,0,.72.26,4.17,4.17,0,0,1,.85.28,1.11,1.11,0,0,1,.43.4,1.12,1.12,0,0,1,.16.62,1.09,1.09,0,0,1-.19.63,1.1,1.1,0,0,1-.53.44,2.27,2.27,0,0,1-.84.14,1.72,1.72,0,0,1-1.14-.34A1.51,1.51,0,0,1,45.91,40.19Z"/><path class="cls-2" d="M50.14,39.53a2.46,2.46,0,0,1,.17-1,1.64,1.64,0,0,1,.37-.53,1.38,1.38,0,0,1,.5-.35,2,2,0,0,1,.84-.16A1.81,1.81,0,0,1,53.4,38a2,2,0,0,1,.52,1.48A2,2,0,0,1,53.41,41a2,2,0,0,1-2.76,0A2,2,0,0,1,50.14,39.53Zm.81,0a1.48,1.48,0,0,0,.3,1,1,1,0,0,0,.78.34,1,1,0,0,0,.77-.34,1.82,1.82,0,0,0,0-2,1,1,0,0,0-.78-.33,1,1,0,0,0-.78.34A1.47,1.47,0,0,0,51,39.51Z"/><path class="cls-2" d="M55.1,41.46V37.59h.79V40.8h2v.66Z"/><path class="cls-2" d="M59,37.56h.79v2.11a4.21,4.21,0,0,0,0,.65.62.62,0,0,0,.24.39.87.87,0,0,0,.52.14.79.79,0,0,0,.5-.13.55.55,0,0,0,.21-.34,5.07,5.07,0,0,0,0-.66V37.56h.79v2a5.52,5.52,0,0,1-.06,1,1,1,0,0,1-.24.49,1.22,1.22,0,0,1-.46.32,2,2,0,0,1-.75.12,2.33,2.33,0,0,1-.85-.13,1.22,1.22,0,0,1-.45-.34,1,1,0,0,1-.22-.43,4.75,4.75,0,0,1-.08-1Z"/><path class="cls-2" d="M65.93,40l.77.25a1.73,1.73,0,0,1-.59.95,1.68,1.68,0,0,1-1,.31A1.66,1.66,0,0,1,63.8,41a2,2,0,0,1-.5-1.45A2.15,2.15,0,0,1,63.8,38a1.73,1.73,0,0,1,1.32-.54,1.65,1.65,0,0,1,1.17.42,1.56,1.56,0,0,1,.4.72l-.78.19a.91.91,0,0,0-.29-.48.84.84,0,0,0-.54-.18.89.89,0,0,0-.7.32,1.5,1.5,0,0,0-.27,1,1.63,1.63,0,0,0,.27,1.06.84.84,0,0,0,.69.31.76.76,0,0,0,.54-.2A1.11,1.11,0,0,0,65.93,40Z"/><path class="cls-2" d="M67.89,41.46v-3.9h.79v3.9Z"/><path class="cls-2" d="M69.82,39.53a2.45,2.45,0,0,1,.18-1,1.77,1.77,0,0,1,.36-.53,1.38,1.38,0,0,1,.5-.35,2.08,2.08,0,0,1,.85-.16,1.84,1.84,0,0,1,1.38.54,2.4,2.4,0,0,1,0,3,1.8,1.8,0,0,1-1.37.54A1.83,1.83,0,0,1,70.33,41,2,2,0,0,1,69.82,39.53Zm.81,0a1.43,1.43,0,0,0,.31,1,1.05,1.05,0,0,0,1.55,0,1.85,1.85,0,0,0,0-2,1,1,0,0,0-.78-.33,1,1,0,0,0-.78.34A1.47,1.47,0,0,0,70.63,39.51Z"/><path class="cls-2" d="M74.77,41.46v-3.9h.77l1.6,2.6v-2.6h.73v3.9h-.79L75.5,38.92v2.54Z"/><path class="cls-2" d="M79.25,41.46v-3.9h2.89v.66H80v.86h2v.66H80V40.8h2.18v.66Z"/><path class="cls-2" d="M83.23,40.19l.76-.07a1,1,0,0,0,.28.56.89.89,0,0,0,.58.18.86.86,0,0,0,.57-.16.46.46,0,0,0,.19-.37.36.36,0,0,0-.08-.24.71.71,0,0,0-.28-.17l-.63-.17a2,2,0,0,1-.89-.39,1,1,0,0,1-.36-.78,1,1,0,0,1,.17-.56,1,1,0,0,1,.48-.39,2,2,0,0,1,.77-.14,1.69,1.69,0,0,1,1.11.32,1.13,1.13,0,0,1,.39.86l-.79,0a.69.69,0,0,0-.22-.44.83.83,0,0,0-.5-.13.92.92,0,0,0-.53.14.28.28,0,0,0-.13.25.28.28,0,0,0,.12.23A1.94,1.94,0,0,0,85,39a4,4,0,0,1,.85.28,1,1,0,0,1,.43.4,1.12,1.12,0,0,1,.16.62,1.09,1.09,0,0,1-.19.63,1.12,1.12,0,0,1-.52.44,2.32,2.32,0,0,1-.85.14,1.74,1.74,0,0,1-1.14-.34A1.5,1.5,0,0,1,83.23,40.19Z"/><path class="cls-2" d="M89.67,41.46v-3.9h1.26a4.54,4.54,0,0,1,.94.06,1,1,0,0,1,.56.38,1.21,1.21,0,0,1,.23.76,1.33,1.33,0,0,1-.13.6,1.08,1.08,0,0,1-.34.39,1.18,1.18,0,0,1-.4.18A4.22,4.22,0,0,1,91,40h-.51v1.47Zm.79-3.24v1.1h.43a2.08,2.08,0,0,0,.62-.06.53.53,0,0,0,.25-.19.61.61,0,0,0,.08-.3.51.51,0,0,0-.12-.35.54.54,0,0,0-.32-.18c-.09,0-.28,0-.56,0Z"/><path class="cls-2" d="M97,41.46h-.85l-.35-.89H94.2l-.32.89h-.83l1.52-3.9h.83Zm-1.45-1.54L95,38.47l-.52,1.45Z"/><path class="cls-2" d="M97.93,41.46v-3.9h1.66a2.91,2.91,0,0,1,.91.1A.92.92,0,0,1,101,38a1.14,1.14,0,0,1,.17.61,1.07,1.07,0,0,1-.26.73,1.24,1.24,0,0,1-.77.36,2.1,2.1,0,0,1,.42.32,4.49,4.49,0,0,1,.45.64l.48.76h-1l-.57-.85a6.64,6.64,0,0,0-.41-.57.63.63,0,0,0-.24-.17,1.24,1.24,0,0,0-.39,0h-.16v1.63Zm.79-2.25h.58a3.13,3.13,0,0,0,.71-.05.46.46,0,0,0,.22-.17.5.5,0,0,0,.08-.29.45.45,0,0,0-.4-.47H98.72Z"/><path class="cls-2" d="M105.93,41.46h-.86l-.34-.89h-1.56l-.32.89H102l1.52-3.9h.83Zm-1.46-1.54-.53-1.45-.53,1.45Z"/><path class="cls-2" d="M108.55,40.19l.76-.07a1,1,0,0,0,.28.56.85.85,0,0,0,.57.18.87.87,0,0,0,.58-.16.46.46,0,0,0,.19-.37.36.36,0,0,0-.08-.24.71.71,0,0,0-.28-.17l-.63-.17a2,2,0,0,1-.89-.39,1,1,0,0,1-.36-.78,1,1,0,0,1,.17-.56,1,1,0,0,1,.48-.39,2,2,0,0,1,.77-.14,1.69,1.69,0,0,1,1.11.32,1.16,1.16,0,0,1,.39.86l-.79,0a.69.69,0,0,0-.22-.44.83.83,0,0,0-.5-.13.9.9,0,0,0-.53.14.28.28,0,0,0-.13.25.28.28,0,0,0,.12.23,1.94,1.94,0,0,0,.72.26,4,4,0,0,1,.85.28,1,1,0,0,1,.43.4,1.12,1.12,0,0,1,.16.62,1.09,1.09,0,0,1-.19.63,1.12,1.12,0,0,1-.52.44,2.32,2.32,0,0,1-.85.14,1.72,1.72,0,0,1-1.14-.34A1.5,1.5,0,0,1,108.55,40.19Z"/><path class="cls-2" d="M112.92,37.56h.79v2.11a4.21,4.21,0,0,0,0,.65.62.62,0,0,0,.24.39.89.89,0,0,0,.52.14.84.84,0,0,0,.51-.13.58.58,0,0,0,.2-.34,4.65,4.65,0,0,0,0-.66V37.56H116v2a5.52,5.52,0,0,1-.06,1,1,1,0,0,1-.24.49,1.18,1.18,0,0,1-.45.32,2.05,2.05,0,0,1-.76.12,2.23,2.23,0,0,1-.84-.13,1.18,1.18,0,0,1-.46-.34,1,1,0,0,1-.22-.43,4.75,4.75,0,0,1-.08-1Z"/><path class="cls-2" d="M119.47,41.46v-3.9h2.89v.66h-2.1v.86h2v.66h-2V40.8h2.18v.66Z"/><path class="cls-2" d="M123.64,41.46v-3.9h1.18l.71,2.66.7-2.66h1.18v3.9h-.73V38.39l-.78,3.07h-.76l-.77-3.07v3.07Z"/><path class="cls-2" d="M128.74,41.46v-3.9H130a4.54,4.54,0,0,1,.94.06,1,1,0,0,1,.56.38,1.43,1.43,0,0,1,.09,1.36,1,1,0,0,1-.33.39,1.14,1.14,0,0,1-.41.18A4.1,4.1,0,0,1,130,40h-.52v1.47Zm.78-3.24v1.1H130a2.16,2.16,0,0,0,.63-.06.5.5,0,0,0,.24-.19.53.53,0,0,0,.09-.3.51.51,0,0,0-.12-.35.57.57,0,0,0-.32-.18c-.09,0-.28,0-.57,0Z"/><path class="cls-2" d="M132.92,41.46v-3.9h1.66a2.91,2.91,0,0,1,.91.1.88.88,0,0,1,.45.38,1.14,1.14,0,0,1,.17.61,1.07,1.07,0,0,1-.26.73,1.24,1.24,0,0,1-.77.36,2.1,2.1,0,0,1,.42.32,4.49,4.49,0,0,1,.45.64l.48.76h-1l-.56-.85q-.31-.45-.42-.57a.56.56,0,0,0-.24-.17,1.24,1.24,0,0,0-.39,0h-.16v1.63Zm.79-2.25h.58a3.13,3.13,0,0,0,.71-.05.41.41,0,0,0,.22-.17.5.5,0,0,0,.08-.29.45.45,0,0,0-.4-.47h-1.19Z"/><path class="cls-2" d="M137.4,41.46v-3.9h2.89v.66h-2.1v.86h1.95v.66h-1.95V40.8h2.18v.66Z"/><path class="cls-2" d="M141.38,40.19l.77-.07a.91.91,0,0,0,.28.56.85.85,0,0,0,.57.18.86.86,0,0,0,.57-.16.46.46,0,0,0,.19-.37.32.32,0,0,0-.08-.24.71.71,0,0,0-.28-.17l-.63-.17a2,2,0,0,1-.89-.39,1,1,0,0,1-.36-.78,1,1,0,0,1,.66-.95,2,2,0,0,1,.77-.14,1.68,1.68,0,0,1,1.1.32,1.13,1.13,0,0,1,.39.86l-.79,0a.68.68,0,0,0-.21-.44.88.88,0,0,0-.5-.13.94.94,0,0,0-.54.14.3.3,0,0,0-.13.25.28.28,0,0,0,.12.23,1.94,1.94,0,0,0,.72.26,4.31,4.31,0,0,1,.86.28,1.18,1.18,0,0,1,.43.4,1.21,1.21,0,0,1,.15.62,1.14,1.14,0,0,1-.71,1.07,2.32,2.32,0,0,1-.85.14,1.76,1.76,0,0,1-1.14-.34A1.5,1.5,0,0,1,141.38,40.19Z"/><path class="cls-2" d="M149.28,41.46h-.86l-.34-.89h-1.56l-.32.89h-.84l1.52-3.9h.84Zm-1.45-1.54-.54-1.45-.53,1.45Z"/><path class="cls-2" d="M23.37,40.4A18.68,18.68,0,1,1,42,21.72,18.67,18.67,0,0,1,23.37,40.4ZM23.37,4A17.76,17.76,0,1,0,41.08,21.72,17.75,17.75,0,0,0,23.37,4Z"/><path class="cls-2" d="M23.52,35.41A13.38,13.38,0,0,1,10.33,21.88,13.38,13.38,0,0,1,23.52,8.34a13.38,13.38,0,0,1,13.2,13.54A13.38,13.38,0,0,1,23.52,35.41Zm0-26.15A12.47,12.47,0,0,0,11.24,21.88,12.47,12.47,0,0,0,23.52,34.5,12.47,12.47,0,0,0,35.8,21.88,12.47,12.47,0,0,0,23.52,9.26Z"/><path class="cls-3" d="M25.39,37.6A13.39,13.39,0,1,1,38.58,24.22,13.3,13.3,0,0,1,25.39,37.6Zm0-25.85A12.47,12.47,0,1,0,37.67,24.22,12.39,12.39,0,0,0,25.39,11.75Z"/><path class="cls-3" d="M25.54,42.89A18.68,18.68,0,1,1,44.17,24.21,18.68,18.68,0,0,1,25.54,42.89Zm0-36.43A17.76,17.76,0,1,0,43.26,24.21,17.75,17.75,0,0,0,25.54,6.46Z"/><path class="cls-1" d="M20.57,43.2a18.05,18.05,0,1,1,18-18.05A18.05,18.05,0,0,1,20.57,43.2ZM20.57,8a17.14,17.14,0,1,0,17.1,17.14A17.14,17.14,0,0,0,20.57,8Z"/><path class="cls-1" d="M20.73,37.91a13.07,13.07,0,0,1,0-26.14,13.07,13.07,0,0,1,0,26.14Zm0-25.23a12.16,12.16,0,0,0,0,24.31,12.16,12.16,0,0,0,0-24.31Z"/><rect class="cls-4" width="153.06" height="46.33"/></g></g></svg>